# xmcd
#
# Track frame offsets:
#	183
#	23643
#	50645
#
# Disc length: 973 seconds
#
# Revision: 1
# Processed by: cddbd v1.5.2PL0 Copyright (c) Steve Scherf et al.
# Submitted via: audiograbber 1.83.01
#
DISCID=1d03cb03
DTITLE=Jackson, Freddie - Nice 'n' slow
DYEAR=1988
DGENRE=Soul
TTITLE0=Nice 'n' slow
TTITLE1=Nice 'n' slow (Extended version)
TTITLE2=You are my love
EXTD=
EXTT0=
EXTT1=
EXTT2=
PLAYORDER=
